<svg xmlns="http://www.w3.org/2000/svg" xmlns:xlink="http://www.w3.org/1999/xlink" aria-hidden="true" focusable="false" width="1em" height="1em" style="-ms-transform: rotate(360deg); -webkit-transform: rotate(360deg); transform: rotate(360deg);" preserveAspectRatio="xMidYMid meet" viewBox="0 0 128 128"><radialGradient id="IconifyId-169d188669c-891fde-470" cx="64" cy="8.352" r="124.15" gradientUnits="userSpaceOnUse"><stop stop-color="#FFD54F" offset="0"/><stop stop-color="#FFD34B" offset=".179"/><stop stop-color="#FFCE3F" offset=".353"/><stop stop-color="#FFC62C" offset=".524"/><stop stop-color="#FFBA11" offset=".693"/><stop stop-color="#FFB300" offset=".778"/><stop stop-color="#FFB300" offset="1"/></radialGradient><path fill="url(#IconifyId-169d188669c-891fde-470)" d="M64 8L8 56h4v66h104V56h4z"/><path d="M64 11.95l49.48 42.41c-.3.48-.48 1.04-.48 1.64v63H15V56c0-.6-.18-1.16-.48-1.63L64 11.95M64 8L8 56h4v66h104V56h4L64 8z" fill="#424242" opacity=".2"/><path d="M124 124H20v-8h100c2.21 0 4 1.79 4 4v4z" fill="#689F38"/><path d="M120 119c.55 0 1 .45 1 1v1H23v-2h97m0-3H20v8h104v-4c0-2.21-1.79-4-4-4z" fill="#424242" opacity=".2"/><path d="M73 30c1.1 0 2 .9 2 2v18c0 1.1-.9 2-2 2H55c-1.1 0-2-.9-2-2V32c0-1.1.9-2 2-2h18m0-2H55c-2.21 0-4 1.79-4 4v18c0 2.21 1.79 4 4 4h18c2.21 0 4-1.79 4-4V32c0-2.21-1.79-4-4-4z" fill="#424242" opacity=".2"/><path d="M98 64c1.1 0 2 .9 2 2v28c0 1.1-.9 2-2 2H80c-1.1 0-2-.9-2-2V66c0-1.1.9-2 2-2h18m0-2H80c-2.21 0-4 1.79-4 4v28c0 2.21 1.79 4 4 4h18c2.21 0 4-1.79 4-4V66c0-2.21-1.79-4-4-4z" fill="#424242" opacity=".2"/><radialGradient id="IconifyId-169d188669c-891fde-471" cx="45.375" cy="59.75" r="52.502" gradientUnits="userSpaceOnUse"><stop stop-color="#D32F2F" offset="0"/><stop stop-color="#CA2929" offset=".437"/><stop stop-color="#B71C1C" offset=".996"/></radialGradient><path d="M64 112H28V62c0-1.1.9-2 2-2h32c1.1 0 2 .9 2 2v50z" fill="url(#IconifyId-169d188669c-891fde-471)"/><radialGradient id="IconifyId-169d188669c-891fde-472" cx="45.875" cy="62.5" r="47.129" gradientUnits="userSpaceOnUse"><stop stop-color="#EF5350" offset="0"/><stop stop-color="#E53935" offset="1"/></radialGradient><path d="M60 109.57H32c-.55 0-1-.45-1-1V63.43c0-.55.45-1 1-1h28c.55 0 1 .45 1 1v45.14c0 .55-.45 1-1 1z" fill="url(#IconifyId-169d188669c-891fde-472)"/><path fill="#4FC3F7" d="M54.5 31.5h19v19h-19z"/><path d="M53 32v18c0 1.1.9 2 2 2h18c1.1 0 2-.9 2-2V32c0-1.1-.9-2-2-2H55c-1.1 0-2 .9-2 2zm20 8h-8v-8h8v8zm-10-8v8h-8v-8h8zm-8 10h8v8h-8v-8zm10 8v-8h8v8h-8z" fill="#eee"/><path fill="#4FC3F7" d="M79.03 65.5h19.94v29H79.03z"/><g fill="url(#IconifyId-169d188669c-891fde-473)"><radialGradient id="IconifyId-169d188669c-891fde-473" cx="45.5" cy="66.75" r="41.615" gradientUnits="userSpaceOnUse"><stop stop-color="#E53935" offset="0"/><stop stop-color="#DC3431" offset=".407"/><stop stop-color="#C62828" offset="1"/></radialGradient><path d="M57 82H35c-.55 0-1-.45-1-1V67c0-.55.45-1 1-1h22c.55 0 1 .45 1 1v14c0 .55-.45 1-1 1z"/><path d="M57 106H35c-.55 0-1-.45-1-1V87c0-.55.45-1 1-1h22c.55 0 1 .45 1 1v18c0 .55-.45 1-1 1z"/></g><linearGradient id="IconifyId-169d188669c-891fde-474" x1="46.024" x2="46.024" y1="109.67" y2="116.2" gradientUnits="userSpaceOnUse"><stop stop-color="#BDBDBD" offset=".004"/><stop stop-color="#B5B5B5" offset=".215"/><stop stop-color="#9E9E9E" offset=".55"/><stop stop-color="#787878" offset=".965"/><stop stop-color="#757575" offset="1"/></linearGradient><path d="M68.02 115.32h-44v-3.66a2.48 2.48 0 0 1 2.48-2.48h39.05a2.48 2.48 0 0 1 2.48 2.48v3.66z" fill="url(#IconifyId-169d188669c-891fde-474)"/><path d="M65.55 110.18c.81 0 1.48.66 1.48 1.48v2.66h-42v-2.66c0-.81.66-1.48 1.48-1.48h39.04m0-1H26.5a2.48 2.48 0 0 0-2.48 2.48v3.66h44v-3.66c0-1.37-1.11-2.48-2.47-2.48z" fill="#263238" opacity=".3"/><linearGradient id="IconifyId-169d188669c-891fde-475" x1="46.024" x2="46.024" y1="114.42" y2="120.91" gradientUnits="userSpaceOnUse"><stop stop-color="#BDBDBD" offset=".004"/><stop stop-color="#BABABA" offset=".397"/><stop stop-color="#B0B0B0" offset=".703"/><stop stop-color="#A0A0A0" offset=".979"/><stop stop-color="#9E9E9E" offset="1"/></linearGradient><path d="M72.02 121.02h-52v-4.2c0-1.44 1.17-2.61 2.61-2.61h46.78c1.44 0 2.61 1.17 2.61 2.61v4.2z" fill="url(#IconifyId-169d188669c-891fde-475)"/><path d="M69.41 115.21c.89 0 1.61.72 1.61 1.61v3.2h-50v-3.2c0-.89.72-1.61 1.61-1.61h46.78m0-1H22.63c-1.44 0-2.61 1.17-2.61 2.61v4.2h52v-4.2c0-1.44-1.16-2.61-2.61-2.61z" fill="#263238" opacity=".3"/><g fill="#424242"><ellipse transform="rotate(-66.932 43.76 111.34)" cx="43.76" cy="111.33" rx=".43" ry=".85" opacity=".2"/><ellipse transform="rotate(-50.926 62.841 113.21)" cx="62.84" cy="113.21" rx=".38" ry=".7" opacity=".2"/><ellipse cx="46.3" cy="112.81" rx="1.03" ry=".5" opacity=".08"/><ellipse cx="55.18" cy="112.74" rx="1.03" ry=".5" opacity=".08"/><ellipse cx="53.05" cy="111.47" rx=".71" ry=".43" opacity=".08"/><ellipse cx="64.6" cy="111.64" rx="1.02" ry=".62" opacity=".08"/><ellipse cx="40.14" cy="111.31" rx=".71" ry=".34" opacity=".08"/><ellipse transform="rotate(-8.569 60.49 111.968)" cx="60.48" cy="111.95" rx="1.16" ry=".56" opacity=".08"/><ellipse transform="rotate(-13.22 41.741 112.678)" cx="41.76" cy="112.69" rx="1.12" ry=".56" opacity=".2"/><ellipse cx="57.01" cy="111.31" rx="1.42" ry=".52" opacity=".2"/><ellipse transform="rotate(-33.387 48.501 111.052)" cx="48.51" cy="111.06" rx=".86" ry=".38" opacity=".2"/><ellipse transform="rotate(-65.203 51.087 112.647)" cx="51.08" cy="112.65" rx=".58" ry="1.48" opacity=".2"/></g><g fill="#424242"><ellipse transform="rotate(-19.986 64.684 116.863)" cx="64.68" cy="116.86" rx=".93" ry=".43" opacity=".2"/><ellipse transform="rotate(-34.3 43.628 118.733)" cx="43.63" cy="118.73" rx=".75" ry=".39" opacity=".2"/><ellipse cx="61.88" cy="118.33" rx="1.14" ry=".5" opacity=".08"/><ellipse cx="52.08" cy="118.27" rx="1.14" ry=".5" opacity=".08"/><ellipse cx="54.43" cy="117" rx=".78" ry=".43" opacity=".08"/><ellipse cx="41.7" cy="117.17" rx="1.12" ry=".62" opacity=".08"/><ellipse cx="68.67" cy="116.84" rx=".78" ry=".34" opacity=".08"/><ellipse transform="rotate(-82.623 46.236 117.483)" cx="46.24" cy="117.48" rx=".56" ry="1.27" opacity=".08"/><ellipse transform="rotate(-78.644 66.89 118.219)" cx="66.89" cy="118.22" rx=".56" ry="1.23" opacity=".2"/><ellipse cx="50.06" cy="116.84" rx="1.56" ry=".52" opacity=".2"/><ellipse transform="rotate(-60.246 59.447 116.584)" cx="59.44" cy="116.59" rx=".39" ry=".92" opacity=".2"/><ellipse transform="rotate(-22.066 56.594 118.158)" cx="56.6" cy="118.17" rx="1.6" ry=".59" opacity=".2"/></g><defs><path id="IconifyId-169d188669c-891fde-476" d="M98 64H80c-1.1 0-2 .9-2 2v28c0 1.1.9 2 2 2h18c1.1 0 2-.9 2-2V66c0-1.1-.9-2-2-2z"/></defs><path d="M80 64c-1.1 0-2 .9-2 2v28c0 1.1.9 2 2 2h18c1.1 0 2-.9 2-2V66c0-1.1-.9-2-2-2H80zm10 2h8v8h-8v-8zm-10 0h8v8h-8v-8zm0 10h8v8h-8v-8zm8 18h-8v-8h8v8zm10 0h-8v-8h8v8zm-8-10v-8h8v8h-8z" fill="#eee"/><circle cx="56.73" cy="85" r="4" fill="#FFC107"/><path d="M56.73 82c1.66 0 3 1.34 3 3s-1.34 3-3 3-3-1.34-3-3 1.35-3 3-3m0-2c-2.76 0-5 2.24-5 5s2.24 5 5 5 5-2.24 5-5-2.24-5-5-5z" fill="#C62828"/><path d="M101 100H77c-1.1 0-2-.9-2-2v-4c0-1.1.9-2 2-2h24c1.1 0 2 .9 2 2v4c0 1.1-.9 2-2 2z" fill="#795548"/><path d="M101 94v4H77v-4h24m0-2H77c-1.1 0-2 .9-2 2v4c0 1.1.9 2 2 2h24c1.1 0 2-.9 2-2v-4c0-1.1-.9-2-2-2z" fill="#424242" opacity=".2"/><defs><path id="IconifyId-169d188669c-891fde-477" d="M120 116h-4V56h4L64 8 8 56h4v66h8v2h104v-4c0-2.21-1.79-4-4-4z"/></defs><clipPath id="IconifyId-169d188669c-891fde-478"><use xlink:href="#IconifyId-169d188669c-891fde-477"/></clipPath><path clip-path="url(#IconifyId-169d188669c-891fde-478)" fill="none" d="M64 8L8 56h4v60h104V56h4z"/><radialGradient id="IconifyId-169d188669c-891fde-479" cx="63.5" cy="3.75" r="67.639" gradientUnits="userSpaceOnUse"><stop stop-color="#F44336" offset="0"/><stop stop-color="#EE3F35" offset=".34"/><stop stop-color="#DC3531" offset=".803"/><stop stop-color="#D32F2F" offset=".996"/></radialGradient><path d="M122.28 53.2L67.2 5.2a4.867 4.867 0 0 0-6.4 0l-55.08 48c-2.06 1.8-2.3 4.95-.53 7.05s4.87 2.34 6.93.54L62.03 17.3c1.13-.98 2.81-.98 3.94 0l49.91 43.49a4.87 4.87 0 0 0 6.94-.55c1.76-2.08 1.52-5.24-.54-7.04z" fill="url(#IconifyId-169d188669c-891fde-479)"/><radialGradient id="IconifyId-169d188669c-891fde-480" cx="22.04" cy="105.13" r="24.298" gradientTransform="matrix(0 1 -1.1617 0 144.17 83.095)" gradientUnits="userSpaceOnUse"><stop stop-color="#9CCC65" offset="0"/><stop stop-color="#96C760" offset=".254"/><stop stop-color="#84B851" offset=".599"/><stop stop-color="#689F38" offset=".995"/></radialGradient><path d="M6.37 123c-.66 0-1.02-.7-1.14-1-.37-.89-.33-2.2.45-2.98.32-.32.35-.86.14-1.25-.48-.85-.68-1.91-.57-2.98.33-3.34 2.93-6.1 6.33-6.72.47-.08.94-.13 1.41-.13.62 0 1.25.08 1.86.23a1.001 1.001 0 0 0 1.09-.44c1.44-2.31 3.91-3.69 6.62-3.69 3.44 0 6.52 2.31 7.48 5.61.13.43.52.72.96.72.06 0 .12-.01.19-.02.49-.09.98-.14 1.46-.14.61 0 1.22.07 1.82.22 3.25.79 5.7 3.66 5.96 6.96.16 2.07-.48 4.04-1.79 5.61H6.37z" fill="url(#IconifyId-169d188669c-891fde-480)"/><path d="M22.56 105.03c3 0 5.68 2.01 6.52 4.89.25.87 1.05 1.44 1.92 1.44.12 0 .25-.01.37-.04.42-.08.85-.12 1.27-.12.53 0 1.06.06 1.58.19 2.84.69 4.98 3.19 5.2 6.07.13 1.65-.33 3.23-1.28 4.53L6.42 122c-.07-.04-.31-.33-.39-.87-.07-.44 0-1.05.36-1.42.5-.49.87-1.43.3-2.45-.38-.67-.54-1.52-.45-2.4.28-2.85 2.6-5.3 5.51-5.83.41-.07.82-.11 1.23-.11.54 0 1.09.07 1.62.2.16.04.32.06.48.06.68 0 1.33-.35 1.7-.94 1.25-2 3.41-3.21 5.78-3.21m0-2c-3.16 0-5.92 1.66-7.47 4.16-.67-.16-1.37-.25-2.1-.25-.52 0-1.05.05-1.59.14-3.76.68-6.77 3.8-7.15 7.6-.22 2.23.74 3.61.72 3.63-1.87 1.88-.84 5.69 1.4 5.69h32.71a8.764 8.764 0 0 0 2.34-6.68c-.29-3.77-3.04-6.96-6.72-7.86a8.7 8.7 0 0 0-2.05-.25c-.56 0-1.11.06-1.65.16-1.07-3.66-4.44-6.34-8.44-6.34z" fill="#689F38"/><path d="M13.91 112.93s-.08-2.41 1.86-4.99" fill="none" stroke="#689F38" stroke-linecap="round" stroke-linejoin="round" stroke-miterlimit="10" stroke-width="2"/><path d="M30.85 110.37c-2.28.04-4.5 1.83-4.84 4.01" fill="none" stroke="#689F38" stroke-linecap="round" stroke-linejoin="round" stroke-miterlimit="10" stroke-width="2"/><path d="M28.51 115.39c-2-.91-4.69-.77-6.76.29" fill="none" stroke="#689F38" stroke-linecap="round" stroke-linejoin="round" stroke-miterlimit="10" stroke-width="2"/><path d="M64 7c.32 0 .79.08 1.23.47l55.08 48c.83.73.93 2.01.21 2.86-.5.59-1.12.68-1.44.68s-.79-.08-1.23-.47l-49.91-43.5c-1.09-.95-2.49-1.48-3.94-1.48s-2.85.52-3.94 1.48L10.15 58.53c-.44.39-.91.47-1.23.47s-.94-.09-1.44-.68c-.72-.85-.62-2.13.21-2.86l55.08-48c.44-.38.91-.46 1.23-.46m0-3c-1.14 0-2.28.4-3.2 1.2l-55.08 48c-2.06 1.8-2.3 4.95-.53 7.05A4.834 4.834 0 0 0 8.92 62c1.13 0 2.27-.4 3.2-1.2l49.91-43.5a3 3 0 0 1 1.97-.74 3 3 0 0 1 1.97.74l49.91 43.49a4.87 4.87 0 0 0 6.94-.55c1.77-2.1 1.53-5.25-.53-7.05L67.2 5.2C66.28 4.4 65.14 4 64 4z" fill="#424242" opacity=".2"/></svg>