<?xml version="1.0" encoding="utf-8"?>
<!-- Generator: Adobe Illustrator 19.0.0, SVG Export Plug-In . SVG Version: 6.00 Build 0)  -->
<svg version="1.1" id="Layer_1" focusable="false" xmlns="http://www.w3.org/2000/svg" xmlns:xlink="http://www.w3.org/1999/xlink"
	 x="0px" y="0px" viewBox="-290.2 415 11.9 11.9" style="enable-background:new -290.2 415 11.9 11.9;" xml:space="preserve">
<style type="text/css">
	.st0{fill:#23BF76;}
</style>
<path class="st0" d="M-284.2,415c-3.3,0-6,2.7-6,6c0,3.3,2.7,6,6,6c3.3,0,6-2.7,6-6C-278.2,417.6-280.9,415-284.2,415z
	 M-282.5,421.7h-0.9v0.9c0,0.7,0,1.3-0.8,1.3c-0.9,0-0.8-0.6-0.8-1.3v-0.9h-0.9c-0.7,0-1.3,0-1.3-0.8c0-0.9,0.6-0.8,1.3-0.8h0.9
	v-0.9c0-0.7,0-1.3,0.8-1.3c0.9,0,0.8,0.6,0.8,1.3v0.9h0.9c0.7,0,1.3,0,1.3,0.8C-281.1,421.7-281.7,421.7-282.5,421.7z"/>
</svg>
